# xmcd
#
# Track frame offsets:
#	150
#	10706
#	25086
#	36859
#	47875
#	62362
#	74542
#	101913
#	114121
#	124833
#	136855
#	149718
#	162286
#	175283
#	185678
#	197811
#	205696
#	219007
#	232595
#	246530
#	259755
#	272800
#	284999
#	296065
#	309510
#	322585
#
# Disc length: 4435 seconds
#
# Revision: 1
# Processed by: cddbd v1.5.2PL0 Copyright (c) Steve Scherf et al.
# Submitted via: audiograbber 1.83.01
#
DISCID=8611511a
DTITLE=DJ Wuthe - swing Rhythm and Blues jump for Dancers Vol.1 1945-1957
DYEAR=1945
DGENRE=R&B
TTITLE0=Ella and Louis - Who Walks In When I Walk Out
TTITLE1=Andy Kirk - Drinking Wine, Spo-Dee-O-Dee
TTITLE2=Lowell Fulson - Ride Until The Sun Goes Down
TTITLE3=Lionel Hampton - For You My Love
TTITLE4=Louis Jordan - Nobody Here But Us Chickens
TTITLE5=Freddie Mitchell - Summertime Boogie
TTITLE6=Joe Liggins - The Honeydrippers
TTITLE7=Lucky Millinder - Silent George
TTITLE8=R. Brown and C. McPhatter - I Gotta Have You
TTITLE9=Mills Brothers - Gum Drop
TTITLE10=Billie Holiday - Them There Eyes
TTITLE11=Joe Liggins - How Come
TTITLE12=Big Sis Andrews - That Ain't The Way To Do It
TTITLE13=Wynonie Harris - Shake That Thing
TTITLE14=Paul Williams - Juice Bug Boogie
TTITLE15=Bobby Scott - Oh, Joshua
TTITLE16=Eydie Gormé - Besame Mucho
TTITLE17=Nappy Brown - Skidy Woe
TTITLE18=Varetta Dillard - No Kinda Good No How
TTITLE19=Little Esther and B. Nunn - Ring-A-Ding Doo
TTITLE20=Joe Liggins - Going Back To New Orleans
TTITLE21=Della Reese - I Cried For You
TTITLE22=The "5" Royales - Laundromat Blues
TTITLE23=Lucky Millinder - Oh Babe!
TTITLE24=Lloyd Glenn - Yancey Special
TTITLE25=Peggy Lee - Rock Me To Sleep
EXTD=
EXTT0=
EXTT1=
EXTT2=
EXTT3=
EXTT4=
EXTT5=
EXTT6=
EXTT7=
EXTT8=
EXTT9=
EXTT10=
EXTT11=
EXTT12=
EXTT13=
EXTT14=
EXTT15=
EXTT16=
EXTT17=
EXTT18=
EXTT19=
EXTT20=
EXTT21=
EXTT22=
EXTT23=
EXTT24=
EXTT25=
PLAYORDER=
